<svg width="96" height="96" viewBox="0 0 96 96" fill="none" xmlns="http://www.w3.org/2000/svg">
<path d="M3.16863 0L0 2.63172V18.9579C0 18.9614 0 18.9642 0 18.9642H1.43269C1.43689 18.9642 1.44029 18.9642 1.44029 18.9642V19.3386C1.44029 19.3411 1.44029 19.3432 1.44029 19.3432H0.00760013C0.0034027 19.3432 0 19.3432 0 19.3432V25.0582C0 25.0617 0 25.0645 0 25.0645H1.57351C1.57771 25.0645 1.58111 25.0645 1.58111 25.0645V38.3274C1.58111 38.3308 1.58111 38.3337 1.58111 38.3337H0.00760013C0.0034027 38.3337 0 38.3337 0 38.3337V95.9146C0 95.9184 0 95.9212 0 95.9212L95.9924 96C95.9966 96 96 95.9212 96 95.9212V30.3921C96 30.3886 96 30.3858 96 30.3858H94.5737C94.5695 30.3858 94.5661 30.3858 94.5661 30.3858V21.8847C94.5661 21.8822 94.5661 21.8801 94.5661 21.8801H95.9924C95.9966 21.8801 96 21.8801 96 21.8801V9.12681L82.5444 0H3.16863Z" fill="#FCFCFC"/>
<path d="M5.0506 14.5977C5.0506 12.418 7.19963 10.6509 9.8506 10.6509H86.1494C88.8004 10.6509 90.9494 12.418 90.9494 14.5977V86.8419C90.9494 89.0217 88.8004 90.7887 86.1494 90.7887H9.8506C7.19963 90.7887 5.0506 89.0217 5.0506 86.8419V14.5977Z" fill="#E6E6E6"/>
</svg>
