<svg width="500" height="500" viewBox="0 0 500 500" fill="none" xmlns="http://www.w3.org/2000/svg">
  <g clip-path="url(#clip0_102_63)">
    <rect width="500" height="500" rx="72" fill="#ecd5e4" />
    <g clip-path="url(#clip1_102_63)">
      <path
        d="M326.014 156.309C321.513 151.808 315.409 149.279 309.044 149.279C302.678 149.279 296.574 151.808 292.073 156.309L249.647 198.735L207.22 156.309C202.719 151.808 196.615 149.279 190.25 149.279C183.884 149.279 177.78 151.808 173.279 156.309L156.309 173.279C146.975 182.613 146.975 197.887 156.309 207.22L198.735 249.647L156.309 292.073C146.975 301.407 146.975 316.681 156.309 326.014L173.279 342.985C177.78 347.486 183.885 350.014 190.25 350.014C196.615 350.014 202.719 347.486 207.22 342.985L249.647 300.558L292.073 342.985C296.574 347.486 302.678 350.014 309.044 350.014C315.409 350.014 321.513 347.486 326.014 342.985L342.985 326.014C347.486 321.513 350.014 315.409 350.014 309.044C350.014 302.679 347.486 296.574 342.985 292.073L300.558 249.647L342.985 207.22C347.486 202.72 350.014 196.615 350.014 190.25C350.014 183.885 347.486 177.78 342.985 173.279L326.014 156.309Z"
        stroke="#85607a" stroke-width="24" stroke-linecap="round" stroke-linejoin="round" />
    </g>
    <rect x="249.647" y="33.2721" width="306" height="306" rx="31.5" transform="rotate(45 249.647 33.2721)"
      stroke="#85607a" stroke-width="18" />
  </g>
  <defs>
    <clipPath id="clip0_102_63">
      <rect width="500" height="500" fill="white" />
    </clipPath>
    <clipPath id="clip1_102_63">
      <rect x="249.647" y="46" width="288" height="288" rx="22.5" transform="rotate(45 249.647 46)" fill="white" />
    </clipPath>
  </defs>
</svg>