<svg width="72" height="72" viewBox="0 0 72 72" fill="none" xmlns="http://www.w3.org/2000/svg">
  <path
    d="M51.2727 6.54547H50.1818V5.45456H51.2727M55.6364 6.54547H54.5455V5.45456H55.6364M60 6.54547H58.9091V5.45456H60M64.3636 8.72729H63.2727V7.63638H64.3636M52.3636 8.72729H53.4545V7.63638H52.3636M56.7273 8.72729H57.8182V7.63638H56.7273M66.5455 13.0909H65.4545V12H66.5455M63.2727 15.2727H64.3636V14.1818H63.2727M51.2727 16.3636H52.3636V15.2727H51.2727M55.6364 16.3636H56.7273V15.2727H55.6364M66.5455 17.4546H65.4545V16.3636H66.5455M50.1818 18.5455H49.0909V17.4546H50.1818M54.5455 18.5455H53.4545V17.4546H54.5455M63.2727 19.6364H64.3636V18.5455H63.2727M55.6364 20.7273H56.7273V19.6364H55.6364M66.5455 21.8182H65.4545V20.7273H66.5455M54.5455 22.9091H53.4545V21.8182H54.5455M56.7273 24H55.6364V22.9091H56.7273V21.8182H55.6364V20.7273H54.5455V19.6364H55.6364V18.5455H56.7273V17.4546H55.6364V16.3636H54.5455V15.2727H53.4545V16.3636H52.3636V17.4546H51.2727V16.3636H50.1818V15.2727H49.0909V16.3636H48V15.2727H49.0909V14.1818H50.1818V15.2727H51.2727V14.1818H52.3636V15.2727H53.4545V14.1818H54.5455V15.2727H55.6364V14.1818H56.7273V15.2727H57.8182V16.3636H56.7273V17.4546H57.8182V18.5455H56.7273V19.6364H57.8182V20.7273H56.7273V21.8182H57.8182V22.9091H56.7273M61.0909 24H58.9091V13.0909H48V10.9091H61.0909M65.4545 24H64.3636V22.9091H63.2727V24H62.1818V22.9091H63.2727V21.8182H62.1818V20.7273H63.2727V19.6364H62.1818V18.5455H63.2727V17.4546H62.1818V16.3636H63.2727V15.2727H62.1818V14.1818H63.2727V13.0909H62.1818V12H63.2727V10.9091H62.1818V9.8182H61.0909V8.72729H60V9.8182H58.9091V8.72729H57.8182V9.8182H56.7273V8.72729H55.6364V9.8182H54.5455V8.72729H53.4545V9.8182H52.3636V8.72729H51.2727V9.8182H50.1818V8.72729H49.0909V9.8182H48V8.72729H49.0909V7.63638H50.1818V8.72729H51.2727V7.63638H52.3636V6.54547H53.4545V7.63638H54.5455V8.72729H55.6364V7.63638H56.7273V6.54547H57.8182V7.63638H58.9091V8.72729H60V7.63638H61.0909V6.54547H62.1818V7.63638H61.0909V8.72729H62.1818V9.8182H63.2727V10.9091H64.3636V9.8182H65.4545V10.9091H64.3636V12H63.2727V13.0909H64.3636V14.1818H65.4545V15.2727H64.3636V16.3636H63.2727V17.4546H64.3636V18.5455H65.4545V19.6364H64.3636V20.7273H63.2727V21.8182H64.3636V22.9091H65.4545V24Z"
    fill="currentColor" />
  <path
    d="M9.81823 6.54547H8.72732V5.45456H9.81823M14.1819 6.54547H13.091V5.45456H14.1819M18.5455 6.54547H17.4546V5.45456H18.5455M22.9091 6.54547H21.8182V5.45456H22.9091M8.72732 8.72729H7.63641V7.63638H8.72732M6.5455 9.8182H5.45459V8.72729H6.5455M10.9091 8.72729H12V7.63638H10.9091M15.2728 8.72729H16.3637V7.63638H15.2728M19.6364 8.72729H20.7273V7.63638H19.6364M7.63641 12H8.72732V10.9091H7.63641M6.5455 14.1818H5.45459V13.0909H6.5455M7.63641 16.3636H8.72732V15.2727H7.63641M18.5455 16.3636H19.6364V15.2727H18.5455M6.5455 18.5455H5.45459V17.4546H6.5455M21.8182 18.5455H20.7273V17.4546H21.8182M15.2728 19.6364H16.3637V18.5455H15.2728M7.63641 20.7273H8.72732V19.6364H7.63641M18.5455 21.8182H17.4546V20.7273H18.5455M6.5455 22.9091H5.45459V21.8182H6.5455M13.091 24H10.9091V10.9091H9.81823V12H8.72732V13.0909H9.81823V14.1818H8.72732V15.2727H9.81823V16.3636H8.72732V17.4546H9.81823V18.5455H8.72732V19.6364H9.81823V20.7273H8.72732V21.8182H9.81823V22.9091H8.72732V24H7.63641V22.9091H8.72732V21.8182H7.63641V20.7273H6.5455V19.6364H7.63641V18.5455H8.72732V17.4546H7.63641V16.3636H6.5455V15.2727H7.63641V14.1818H8.72732V13.0909H7.63641V12H6.5455V10.9091H7.63641V9.8182H8.72732V10.9091H9.81823V9.8182H10.9091V8.72729H9.81823V7.63638H10.9091V6.54547H12V7.63638H13.091V8.72729H14.1819V7.63638H15.2728V6.54547H16.3637V7.63638H17.4546V8.72729H18.5455V7.63638H19.6364V6.54547H20.7273V7.63638H21.8182V8.72729H22.9091V7.63638H24V8.72729H22.9091V9.8182H21.8182V8.72729H20.7273V9.8182H19.6364V8.72729H18.5455V9.8182H17.4546V8.72729H16.3637V9.8182H15.2728V8.72729H14.1819V9.8182H13.091V8.72729H12V9.8182H10.9091V10.9091H24V13.0909H13.091M17.4546 24H16.3637V22.9091H15.2728V24H14.1819V22.9091H15.2728V21.8182H14.1819V20.7273H15.2728V19.6364H14.1819V18.5455H15.2728V17.4546H14.1819V16.3636H15.2728V15.2727H14.1819V14.1818H15.2728V15.2727H16.3637V14.1818H17.4546V15.2727H18.5455V14.1818H19.6364V15.2727H20.7273V14.1818H21.8182V15.2727H22.9091V14.1818H24V15.2727H22.9091V16.3636H24V17.4546H22.9091V16.3636H21.8182V15.2727H20.7273V16.3636H19.6364V17.4546H18.5455V16.3636H17.4546V15.2727H16.3637V16.3636H15.2728V17.4546H16.3637V18.5455H17.4546V19.6364H16.3637V20.7273H15.2728V21.8182H16.3637V22.9091H17.4546V24Z"
    fill="currentColor" />
  <g clip-path="url(#clip0_640_288)">
    <path
      d="M66.5455 48.1818H65.4545V47.0909H66.5455M54.5455 49.2727H53.4545V48.1818H54.5455M63.2727 50.3636H64.3636V49.2727H63.2727M51.2727 52.5455H50.1818V51.4545H51.2727M55.6364 51.4545H56.7273V50.3636H55.6364M66.5455 52.5455H65.4545V51.4545H66.5455M52.3636 54.7273H53.4545V53.6364H52.3636M57.8182 55.8182H56.7273V54.7273H55.6364V55.8182H54.5455V54.7273H53.4545V55.8182H52.3636V54.7273H51.2727V55.8182H50.1818V54.7273H49.0909V55.8182H48V54.7273H49.0909V53.6364H48V52.5455H49.0909V53.6364H50.1818V54.7273H51.2727V53.6364H52.3636V52.5455H53.4545V53.6364H54.5455V54.7273H55.6364V53.6364H56.7273V52.5455H55.6364V51.4545H54.5455V50.3636H55.6364V49.2727H56.7273V48.1818H55.6364V47.0909H54.5455V46H55.6364V47.0909H56.7273V46H57.8182V47.0909H56.7273V48.1818H57.8182V49.2727H56.7273V50.3636H57.8182V51.4545H56.7273V52.5455H57.8182V53.6364H56.7273V54.7273H57.8182M63.2727 54.7273H64.3636V53.6364H63.2727M66.5455 56.9091H65.4545V55.8182H66.5455M63.2727 59.0909H64.3636V58H63.2727M66.5455 61.2727H65.4545V60.1818H66.5455M64.3636 62.3636H63.2727V61.2727H64.3636M51.2727 62.3636H52.3636V61.2727H51.2727M55.6364 62.3636H56.7273V61.2727H55.6364M60 62.3636H61.0909V61.2727H60M61.0909 63.4545H60V62.3636H58.9091V61.2727H57.8182V62.3636H56.7273V63.4545H55.6364V62.3636H54.5455V61.2727H53.4545V62.3636H52.3636V63.4545H51.2727V62.3636H50.1818V61.2727H49.0909V62.3636H48V61.2727H49.0909V60.1818H50.1818V61.2727H51.2727V60.1818H52.3636V61.2727H53.4545V60.1818H54.5455V61.2727H55.6364V60.1818H56.7273V61.2727H57.8182V60.1818H58.9091V61.2727H60V60.1818H61.0909V59.0909H48V56.9091H58.9091V46H61.0909V59.0909H62.1818V58H63.2727V56.9091H62.1818V55.8182H63.2727V54.7273H62.1818V53.6364H63.2727V52.5455H62.1818V51.4545H63.2727V50.3636H62.1818V49.2727H63.2727V48.1818H62.1818V47.0909H63.2727V46H64.3636V47.0909H63.2727V48.1818H64.3636V49.2727H65.4545V50.3636H64.3636V51.4545H63.2727V52.5455H64.3636V53.6364H65.4545V54.7273H64.3636V55.8182H63.2727V56.9091H64.3636V58H65.4545V59.0909H64.3636V60.1818H63.2727V59.0909H62.1818V60.1818H61.0909V61.2727H62.1818V62.3636H61.0909M50.1818 64.5455H49.0909V63.4545H50.1818M54.5455 64.5455H53.4545V63.4545H54.5455M58.9091 64.5455H57.8182V63.4545H58.9091M63.2727 64.5455H62.1818V63.4545H63.2727V64.5455Z"
      fill="currentColor" />
  </g>
  <path
    d="M27.2727 6.54547H26.1818V5.45456H27.2727M31.6364 6.54547H30.5455V5.45456H31.6364M37.0909 6.54547H36V5.45456H37.0909M42.5455 6.54547H41.4545V5.45456H42.5455M46.9091 6.54547H45.8182V5.45456H46.9091M28.3636 8.72729H29.4545V7.63638H28.3636M32.7273 8.72729H33.8182V7.63638H32.7273M39.2727 8.72729H40.3636V7.63638H39.2727M43.6364 8.72729H44.7273V7.63638H43.6364M46.9091 9.8182H45.8182V8.72729H44.7273V9.8182H43.6364V8.72729H42.5455V9.8182H41.4545V8.72729H40.3636V9.8182H39.2727V8.72729H38.1818V9.8182H37.0909V8.72729H36V9.8182H34.9091V8.72729H33.8182V9.8182H32.7273V8.72729H31.6364V9.8182H30.5455V8.72729H29.4545V9.8182H28.3636V8.72729H27.2727V9.8182H26.1818V8.72729H25.0909V9.8182H24V8.72729H25.0909V7.63638H24V6.54547H25.0909V7.63638H26.1818V8.72729H27.2727V7.63638H28.3636V6.54547H29.4545V7.63638H30.5455V8.72729H31.6364V7.63638H32.7273V6.54547H33.8182V7.63638H34.9091V8.72729H36V7.63638H37.0909V8.72729H38.1818V7.63638H39.2727V6.54547H40.3636V7.63638H41.4545V8.72729H42.5455V7.63638H43.6364V6.54547H44.7273V7.63638H45.8182V8.72729H46.9091V7.63638H48V8.72729H46.9091M48 13.0909H24V10.9091H48M27.2727 16.3637H28.3636V15.2727H27.2727M31.6364 16.3637H32.7273V15.2727H31.6364M38.1818 16.3637H39.2727V15.2727H38.1818M42.5455 16.3637H43.6364V15.2727H42.5455M48 17.4546H46.9091V16.3637H45.8182V15.2727H44.7273V16.3637H43.6364V17.4546H42.5455V16.3637H41.4545V15.2727H40.3636V16.3637H39.2727V17.4546H38.1818V16.3637H37.0909V15.2727H36V16.3637H34.9091V15.2727H33.8182V16.3637H32.7273V17.4546H31.6364V16.3637H30.5455V15.2727H29.4545V16.3637H28.3636V17.4546H27.2727V16.3637H26.1818V15.2727H25.0909V16.3637H24V15.2727H25.0909V14.1818H26.1818V15.2727H27.2727V14.1818H28.3636V15.2727H29.4545V14.1818H30.5455V15.2727H31.6364V14.1818H32.7273V15.2727H33.8182V14.1818H34.9091V15.2727H36V14.1818H37.0909V15.2727H38.1818V14.1818H39.2727V15.2727H40.3636V14.1818H41.4545V15.2727H42.5455V14.1818H43.6364V15.2727H44.7273V14.1818H45.8182V15.2727H46.9091V14.1818H48V15.2727H46.9091V16.3637H48M26.1818 18.5455H25.0909V17.4546H26.1818M30.5455 18.5455H29.4545V17.4546H30.5455M36 18.5455H34.9091V17.4546H36M41.4545 18.5455H40.3636V17.4546H41.4545M45.8182 18.5455H44.7273V17.4546H45.8182V18.5455Z"
    fill="currentColor" />
  <path
    d="M27.2727 52.5454H26.1818V51.4545H27.2727M31.6364 52.5454H30.5455V51.4545H31.6364M37.0909 52.5454H36V51.4545H37.0909M42.5455 52.5454H41.4545V51.4545H42.5455M46.9091 52.5454H45.8182V51.4545H46.9091M28.3636 54.7273H29.4545V53.6363H28.3636M32.7273 54.7273H33.8182V53.6363H32.7273M39.2727 54.7273H40.3636V53.6363H39.2727M43.6364 54.7273H44.7273V53.6363H43.6364M46.9091 55.8182H45.8182V54.7273H44.7273V55.8182H43.6364V54.7273H42.5455V55.8182H41.4545V54.7273H40.3636V55.8182H39.2727V54.7273H38.1818V55.8182H37.0909V54.7273H36V55.8182H34.9091V54.7273H33.8182V55.8182H32.7273V54.7273H31.6364V55.8182H30.5455V54.7273H29.4545V55.8182H28.3636V54.7273H27.2727V55.8182H26.1818V54.7273H25.0909V55.8182H24V54.7273H25.0909V53.6363H24V52.5454H25.0909V53.6363H26.1818V54.7273H27.2727V53.6363H28.3636V52.5454H29.4545V53.6363H30.5455V54.7273H31.6364V53.6363H32.7273V52.5454H33.8182V53.6363H34.9091V54.7273H36V53.6363H37.0909V54.7273H38.1818V53.6363H39.2727V52.5454H40.3636V53.6363H41.4545V54.7273H42.5455V53.6363H43.6364V52.5454H44.7273V53.6363H45.8182V54.7273H46.9091V53.6363H48V54.7273H46.9091M48 59.0909H24V56.9091H48M27.2727 62.3636H28.3636V61.2727H27.2727M31.6364 62.3636H32.7273V61.2727H31.6364M38.1818 62.3636H39.2727V61.2727H38.1818M42.5455 62.3636H43.6364V61.2727H42.5455M48 63.4545H46.9091V62.3636H45.8182V61.2727H44.7273V62.3636H43.6364V63.4545H42.5455V62.3636H41.4545V61.2727H40.3636V62.3636H39.2727V63.4545H38.1818V62.3636H37.0909V61.2727H36V62.3636H34.9091V61.2727H33.8182V62.3636H32.7273V63.4545H31.6364V62.3636H30.5455V61.2727H29.4545V62.3636H28.3636V63.4545H27.2727V62.3636H26.1818V61.2727H25.0909V62.3636H24V61.2727H25.0909V60.1818H26.1818V61.2727H27.2727V60.1818H28.3636V61.2727H29.4545V60.1818H30.5455V61.2727H31.6364V60.1818H32.7273V61.2727H33.8182V60.1818H34.9091V61.2727H36V60.1818H37.0909V61.2727H38.1818V60.1818H39.2727V61.2727H40.3636V60.1818H41.4545V61.2727H42.5455V60.1818H43.6364V61.2727H44.7273V60.1818H45.8182V61.2727H46.9091V60.1818H48V61.2727H46.9091V62.3636H48M26.1818 64.5454H25.0909V63.4545H26.1818M30.5455 64.5454H29.4545V63.4545H30.5455M36 64.5454H34.9091V63.4545H36M41.4545 64.5454H40.3636V63.4545H41.4545M45.8182 64.5454H44.7273V63.4545H45.8182V64.5454Z"
    fill="currentColor" />
  <path
    d="M66.5455 26.1818H65.4546V25.0909H66.5455M54.5455 27.2727H53.4546V26.1818H54.5455M63.2728 28.3636H64.3637V27.2727H63.2728M55.6364 29.4545H56.7273V28.3636H55.6364M66.5455 30.5455H65.4546V29.4545H66.5455M54.5455 31.6364H53.4546V30.5455H54.5455M63.2728 32.7273H64.3637V31.6364H63.2728M55.6364 33.8182H56.7273V32.7273H55.6364M66.5455 36H65.4546V34.9091H66.5455M54.5455 37.0909H53.4546V36H54.5455M63.2728 39.2727H64.3637V38.1818H63.2728M55.6364 40.3636H56.7273V39.2727H55.6364M66.5455 41.4545H65.4546V40.3636H66.5455M54.5455 42.5455H53.4546V41.4545H54.5455M63.2728 43.6364H64.3637V42.5455H63.2728M55.6364 44.7273H56.7273V43.6364H55.6364M66.5455 45.8182H65.4546V44.7273H66.5455M54.5455 46.9091H53.4546V45.8182H54.5455M56.7273 48H55.6364V46.9091H56.7273V45.8182H55.6364V44.7273H54.5455V43.6364H55.6364V42.5455H56.7273V41.4545H55.6364V40.3636H54.5455V39.2727H55.6364V38.1818H56.7273V37.0909H55.6364V36H56.7273V34.9091H55.6364V33.8182H54.5455V32.7273H55.6364V31.6364H56.7273V30.5455H55.6364V29.4545H54.5455V28.3636H55.6364V27.2727H56.7273V26.1818H55.6364V25.0909H54.5455V24H55.6364V25.0909H56.7273V24H57.8182V25.0909H56.7273V26.1818H57.8182V27.2727H56.7273V28.3636H57.8182V29.4545H56.7273V30.5455H57.8182V31.6364H56.7273V32.7273H57.8182V33.8182H56.7273V34.9091H57.8182V36H56.7273V37.0909H57.8182V38.1818H56.7273V39.2727H57.8182V40.3636H56.7273V41.4545H57.8182V42.5455H56.7273V43.6364H57.8182V44.7273H56.7273V45.8182H57.8182V46.9091H56.7273M61.091 48H58.9091V24H61.091M65.4546 48H64.3637V46.9091H63.2728V48H62.1819V46.9091H63.2728V45.8182H62.1819V44.7273H63.2728V43.6364H62.1819V42.5455H63.2728V41.4545H62.1819V40.3636H63.2728V39.2727H62.1819V38.1818H63.2728V37.0909H62.1819V36H63.2728V34.9091H62.1819V33.8182H63.2728V32.7273H62.1819V31.6364H63.2728V30.5455H62.1819V29.4545H63.2728V28.3636H62.1819V27.2727H63.2728V26.1818H62.1819V25.0909H63.2728V24H64.3637V25.0909H63.2728V26.1818H64.3637V27.2727H65.4546V28.3636H64.3637V29.4545H63.2728V30.5455H64.3637V31.6364H65.4546V32.7273H64.3637V33.8182H63.2728V34.9091H64.3637V36H63.2728V37.0909H64.3637V38.1818H65.4546V39.2727H64.3637V40.3636H63.2728V41.4545H64.3637V42.5455H65.4546V43.6364H64.3637V44.7273H63.2728V45.8182H64.3637V46.9091H65.4546V48Z"
    fill="currentColor" />
  <path
    d="M18.5455 26.1818H17.4546V25.0909H18.5455M6.5455 27.2727H5.45459V26.1818H6.5455M15.2728 28.3636H16.3637V27.2727H15.2728M7.63641 29.4545H8.72732V28.3636H7.63641M18.5455 30.5455H17.4546V29.4545H18.5455M6.5455 31.6364H5.45459V30.5455H6.5455M15.2728 32.7273H16.3637V31.6364H15.2728M7.63641 33.8182H8.72732V32.7273H7.63641M18.5455 36H17.4546V34.9091H18.5455M6.5455 37.0909H5.45459V36H6.5455M15.2728 39.2727H16.3637V38.1818H15.2728M7.63641 40.3636H8.72732V39.2727H7.63641M18.5455 41.4545H17.4546V40.3636H18.5455M6.5455 42.5455H5.45459V41.4545H6.5455M15.2728 43.6364H16.3637V42.5455H15.2728M7.63641 44.7273H8.72732V43.6364H7.63641M18.5455 45.8182H17.4546V44.7273H18.5455M6.5455 46.9091H5.45459V45.8182H6.5455M8.72732 48H7.63641V46.9091H8.72732V45.8182H7.63641V44.7273H6.5455V43.6364H7.63641V42.5455H8.72732V41.4545H7.63641V40.3636H6.5455V39.2727H7.63641V38.1818H8.72732V37.0909H7.63641V36H8.72732V34.9091H7.63641V33.8182H6.5455V32.7273H7.63641V31.6364H8.72732V30.5455H7.63641V29.4545H6.5455V28.3636H7.63641V27.2727H8.72732V26.1818H7.63641V25.0909H6.5455V24H7.63641V25.0909H8.72732V24H9.81823V25.0909H8.72732V26.1818H9.81823V27.2727H8.72732V28.3636H9.81823V29.4545H8.72732V30.5455H9.81823V31.6364H8.72732V32.7273H9.81823V33.8182H8.72732V34.9091H9.81823V36H8.72732V37.0909H9.81823V38.1818H8.72732V39.2727H9.81823V40.3636H8.72732V41.4545H9.81823V42.5455H8.72732V43.6364H9.81823V44.7273H8.72732V45.8182H9.81823V46.9091H8.72732M13.091 48H10.9091V24H13.091M17.4546 48H16.3637V46.9091H15.2728V48H14.1819V46.9091H15.2728V45.8182H14.1819V44.7273H15.2728V43.6364H14.1819V42.5455H15.2728V41.4545H14.1819V40.3636H15.2728V39.2727H14.1819V38.1818H15.2728V37.0909H14.1819V36H15.2728V34.9091H14.1819V33.8182H15.2728V32.7273H14.1819V31.6364H15.2728V30.5455H14.1819V29.4545H15.2728V28.3636H14.1819V27.2727H15.2728V26.1818H14.1819V25.0909H15.2728V24H16.3637V25.0909H15.2728V26.1818H16.3637V27.2727H17.4546V28.3636H16.3637V29.4545H15.2728V30.5455H16.3637V31.6364H17.4546V32.7273H16.3637V33.8182H15.2728V34.9091H16.3637V36H15.2728V37.0909H16.3637V38.1818H17.4546V39.2727H16.3637V40.3636H15.2728V41.4545H16.3637V42.5455H17.4546V43.6364H16.3637V44.7273H15.2728V45.8182H16.3637V46.9091H17.4546V48Z"
    fill="currentColor" />
  <g clip-path="url(#clip1_640_288)">
    <path
      d="M18.5455 48.1818H17.4546V47.0909H18.5455M6.5455 49.2727H5.45459V48.1818H6.5455M15.2728 50.3636H16.3637V49.2727H15.2728M7.63641 51.4545H8.72732V50.3636H7.63641M18.5455 52.5455H17.4546V51.4545H18.5455M22.9091 52.5455H21.8182V51.4545H22.9091M6.5455 53.6364H5.45459V52.5455H6.5455M15.2728 54.7273H16.3637V53.6364H15.2728M19.6364 54.7273H20.7273V53.6364H19.6364M22.9091 55.8182H21.8182V54.7273H20.7273V55.8182H19.6364V54.7273H18.5455V55.8182H17.4546V54.7273H16.3637V55.8182H15.2728V54.7273H14.1819V53.6364H15.2728V52.5455H14.1819V51.4545H15.2728V50.3636H14.1819V49.2727H15.2728V48.1818H14.1819V47.0909H15.2728V46H16.3637V47.0909H15.2728V48.1818H16.3637V49.2727H17.4546V50.3636H16.3637V51.4545H15.2728V52.5455H16.3637V53.6364H17.4546V54.7273H18.5455V53.6364H19.6364V52.5455H20.7273V53.6364H21.8182V54.7273H22.9091V53.6364H24V54.7273H22.9091M7.63641 55.8182H8.72732V54.7273H7.63641M6.5455 58H5.45459V56.9091H6.5455M24 59.0909H10.9091V46H13.091V56.9091H24M8.72732 62.3636H7.63641V61.2727H8.72732M14.1819 62.3636H15.2728V61.2727H14.1819M18.5455 62.3636H19.6364V61.2727H18.5455M19.6364 63.4545H18.5455V62.3636H17.4546V61.2727H16.3637V62.3636H15.2728V63.4545H14.1819V62.3636H13.091V61.2727H12V62.3636H10.9091V63.4545H9.81823V62.3636H10.9091V61.2727H9.81823V60.1818H8.72732V59.0909H7.63641V60.1818H6.5455V59.0909H7.63641V58H8.72732V56.9091H7.63641V55.8182H6.5455V54.7273H7.63641V53.6364H8.72732V52.5455H7.63641V51.4545H6.5455V50.3636H7.63641V49.2727H8.72732V48.1818H7.63641V47.0909H6.5455V46H7.63641V47.0909H8.72732V46H9.81823V47.0909H8.72732V48.1818H9.81823V49.2727H8.72732V50.3636H9.81823V51.4545H8.72732V52.5455H9.81823V53.6364H8.72732V54.7273H9.81823V55.8182H8.72732V56.9091H9.81823V58H8.72732V59.0909H9.81823V60.1818H10.9091V61.2727H12V60.1818H13.091V61.2727H14.1819V60.1818H15.2728V61.2727H16.3637V60.1818H17.4546V61.2727H18.5455V60.1818H19.6364V61.2727H20.7273V60.1818H21.8182V61.2727H22.9091V60.1818H24V61.2727H22.9091V62.3636H21.8182V61.2727H20.7273V62.3636H19.6364M13.091 64.5455H12V63.4545H13.091M17.4546 64.5455H16.3637V63.4545H17.4546M21.8182 64.5455H20.7273V63.4545H21.8182V64.5455Z"
      fill="currentColor" />
  </g>
  <defs>
    <clipPath id="clip0_640_288">
      <rect width="24" height="24" fill="white" transform="translate(48 48)" />
    </clipPath>
    <clipPath id="clip1_640_288">
      <rect width="24" height="24" fill="white" transform="translate(0 48)" />
    </clipPath>
  </defs>
</svg>